<?xml version="1.0" encoding="utf-8"?>
<!-- Generator: Adobe Illustrator 18.1.1, SVG Export Plug-In . SVG Version: 6.00 Build 0)  -->
<!DOCTYPE svg PUBLIC "-//W3C//DTD SVG 1.1//EN" "http://www.w3.org/Graphics/SVG/1.1/DTD/svg11.dtd">
<svg version="1.1" id="Layer_1" xmlns="http://www.w3.org/2000/svg" xmlns:xlink="http://www.w3.org/1999/xlink" x="0px" y="0px"
	 viewBox="0 0 30 30" enable-background="new 0 0 30 30" xml:space="preserve">
<g>
	<path fill="#FFFFFF" d="M27.2,5.2c-1.8-1.8-4.2-2.8-6.7-2.8H9.5c-2.5,0-4.9,1-6.7,2.8C1,7,0,9.4,0,12c0,2.5,1,4.9,2.8,6.7
		c1.8,1.8,4.2,2.8,6.7,2.8h2.8l6,6v-6h2c2.5,0,4.9-1,6.7-2.8C29,16.9,30,14.5,30,12C30,9.4,29,7,27.2,5.2z"/>
	<path d="M11.6,7.9h-2c-2.3,0-4.1,1.8-4.1,4.1c0,2.3,1.8,4.1,4.1,4.1h2v4.1h-2c-4.5,0-8.2-3.7-8.2-8.2c0-4.5,3.7-8.2,8.2-8.2h2V7.9z
		"/>
	<path d="M20.5,3.8H13v16.4l4.1,4.1v-4.1h3.4c4.5,0,8.2-3.7,8.2-8.2C28.6,7.5,25,3.8,20.5,3.8z M20.5,16.1H17V7.9h3.4
		c2.3,0,4.1,1.8,4.1,4.1C24.5,14.2,22.7,16.1,20.5,16.1z"/>
</g>
</svg>
