<?xml version="1.0" encoding="utf-8"?>
<!-- Generator: Adobe Illustrator 18.1.1, SVG Export Plug-In . SVG Version: 6.00 Build 0)  -->
<!DOCTYPE svg PUBLIC "-//W3C//DTD SVG 1.1//EN" "http://www.w3.org/Graphics/SVG/1.1/DTD/svg11.dtd">
<svg version="1.1" id="Layer_1" xmlns="http://www.w3.org/2000/svg" xmlns:xlink="http://www.w3.org/1999/xlink" x="0px" y="0px"
	 viewBox="0 0 30 30" enable-background="new 0 0 30 30" xml:space="preserve">
<path id="XMLID_1_" d="M15,0c8.3,0,15,6.7,15,15s-6.7,15-15,15S0,23.3,0,15S6.7,0,15,0z"/>
<g>
	<path fill="#FFFFFF" d="M15,16.1C15,16.1,15,16.1,15,16.1c0.2,0,0.5-0.1,0.6-0.2l6.6-6.6H7.9l6.5,6.6C14.6,16,14.8,16.1,15,16.1z"
		/>
	<path fill="#FFFFFF" d="M16.5,16.8c-0.4,0.4-0.9,0.6-1.5,0.6c0,0,0,0,0,0c-0.6,0-1.1-0.2-1.5-0.6l-0.9-0.9l-4.7,4.8h14.2l-4.7-4.8
		L16.5,16.8z"/>
	<polygon fill="#FFFFFF" points="23,19.8 23,10.3 18.3,15 	"/>
	<polygon fill="#FFFFFF" points="7,10.2 7,19.8 11.7,15 	"/>
</g>
</svg>
