<?xml version="1.0" encoding="utf-8"?>
<!-- Generator: Adobe Illustrator 18.1.1, SVG Export Plug-In . SVG Version: 6.00 Build 0)  -->
<!DOCTYPE svg PUBLIC "-//W3C//DTD SVG 1.1//EN" "http://www.w3.org/Graphics/SVG/1.1/DTD/svg11.dtd">
<svg version="1.1" id="Layer_1" xmlns="http://www.w3.org/2000/svg" xmlns:xlink="http://www.w3.org/1999/xlink" x="0px" y="0px"
	 viewBox="0 0 30 30" enable-background="new 0 0 30 30" xml:space="preserve">
<path id="XMLID_1_" d="M15,0c8.3,0,15,6.7,15,15s-6.7,15-15,15S0,23.3,0,15S6.7,0,15,0z"/>
<g>
	<g>
		<path fill="#FFFFFF" d="M17.9,16c-0.4,0-0.7,0.2-1,0.6c-0.3,0.4-0.4,0.9-0.4,1.5c0,0.6,0.1,1.1,0.4,1.5c0.3,0.4,0.6,0.6,1,0.6
			c0.4,0,0.7-0.2,1-0.6c0.3-0.4,0.4-0.9,0.4-1.5c0-0.6-0.1-1.1-0.4-1.5C18.6,16.2,18.3,16,17.9,16z M12.1,16c-0.4,0-0.7,0.2-1,0.6
			c-0.3,0.4-0.4,0.9-0.4,1.5c0,0.6,0.1,1.1,0.4,1.5c0.3,0.4,0.6,0.6,1,0.6c0.4,0,0.7-0.2,1-0.6c0.3-0.4,0.4-0.9,0.4-1.5
			c0-0.6-0.1-1.1-0.4-1.5C12.8,16.2,12.5,16,12.1,16z M23.8,13.5c-0.3-0.6-0.6-1.2-1.1-1.7c0.1-0.2,0.2-0.6,0.3-1.3
			C23.1,9.8,22.9,9,22.6,8c0-0.1-0.3,0-0.9,0c-0.6,0.1-1.6,0.6-3,1.5c-0.6-0.2-1.2-0.3-1.8-0.3c-0.6,0-1.2-0.1-1.8-0.1
			c-0.6,0-1.2,0-1.8,0.1c-0.6,0-1.2,0.2-1.8,0.3C10,8.6,9,8.1,8.4,8c-0.6-0.1-1-0.1-0.9,0C7.1,9,6.9,9.8,7,10.5
			c0.1,0.7,0.2,1.1,0.3,1.3c-0.5,0.5-0.8,1.1-1.1,1.7c-0.3,0.6-0.4,1.4-0.4,2.1c0,2.9,0.9,4.9,2.6,5.9c1.7,1,3.9,1.5,6.6,1.4
			c2.7,0.1,4.9-0.4,6.6-1.4c1.7-1,2.6-3,2.6-5.9C24.2,14.8,24.1,14.1,23.8,13.5z M19.9,21.2c-1.3,0.4-2.9,0.6-4.9,0.5
			c-2,0.1-3.6-0.1-4.9-0.5c-1.3-0.4-2-1.5-2-3.3c0-0.4,0.1-0.9,0.3-1.3c0.2-0.4,0.5-0.8,0.9-1.1c0.6-0.5,1.4-0.7,2.4-0.7
			c1,0.1,2.1,0.1,3.3,0.2c1.2,0,2.3-0.1,3.3-0.2c1-0.1,1.8,0.2,2.4,0.7c0.4,0.3,0.7,0.7,0.9,1.1c0.2,0.4,0.3,0.8,0.3,1.3
			C21.9,19.7,21.2,20.8,19.9,21.2z"/>
	</g>
</g>
</svg>
