<?xml version="1.0" encoding="utf-8"?>
<!-- Generator: Adobe Illustrator 18.1.1, SVG Export Plug-In . SVG Version: 6.00 Build 0)  -->
<!DOCTYPE svg PUBLIC "-//W3C//DTD SVG 1.1//EN" "http://www.w3.org/Graphics/SVG/1.1/DTD/svg11.dtd">
<svg version="1.1" id="Layer_1" xmlns="http://www.w3.org/2000/svg" xmlns:xlink="http://www.w3.org/1999/xlink" x="0px" y="0px"
	 viewBox="0 0 30 30" enable-background="new 0 0 30 30" xml:space="preserve">
<g>
	<g>
		<circle cx="15" cy="15" r="15"/>
	</g>
</g>
<path fill="#FFFFFF" d="M24,10.7L24,10.7L24,10.7 M19,9.2c-1.8,0-3.3,1.5-3.3,3.4c0,0.3,0,0.5,0.1,0.8c-2.8-0.1-5.2-1.5-6.9-3.5
	c-0.3,0.5-0.5,1.1-0.5,1.7c0,1.2,0.6,2.2,1.5,2.8c-0.5,0-1.1-0.2-1.5-0.4c0,0,0,0,0,0c0,1.6,1.1,3,2.7,3.3c-0.3,0.1-0.6,0.1-0.9,0.1
	c-0.2,0-0.4,0-0.6-0.1c0.4,1.3,1.7,2.3,3.1,2.3c-1.1,0.9-2.6,1.4-4.1,1.4c-0.3,0-0.5,0-0.8,0c1.5,1,3.2,1.5,5.1,1.5
	c6.1,0,9.5-5.1,9.5-9.6c0-0.1,0-0.3,0-0.4c0.7-0.5,1.2-1.1,1.7-1.7c-0.6,0.3-1.2,0.4-1.9,0.5c0.7-0.4,1.2-1.1,1.5-1.9
	c-0.6,0.4-1.4,0.7-2.1,0.8C20.8,9.6,19.9,9.2,19,9.2"/>
</svg>
